<mxfile host="app.diagrams.net" agent="Mozilla/5.0 (Windows NT 10.0; Win64; x64) AppleWebKit/537.36 (KHTML, like Gecko) Chrome/130.0.0.0 Safari/537.36" version="24.8.4">
  <diagram name="Page-1" id="vyGXIA79MHlj44jtNxEa">
    <mxGraphModel dx="1687" dy="878" grid="1" gridSize="10" guides="1" tooltips="1" connect="1" arrows="1" fold="1" page="1" pageScale="1" pageWidth="850" pageHeight="1100" math="0" shadow="0">
      <root>
        <mxCell id="0" />
        <mxCell id="1" parent="0" />
        <mxCell id="qK4679LcunszKpLoP00Q-4" style="edgeStyle=orthogonalEdgeStyle;rounded=0;orthogonalLoop=1;jettySize=auto;html=1;exitX=0.5;exitY=1;exitDx=0;exitDy=0;entryX=0.5;entryY=0;entryDx=0;entryDy=0;" edge="1" parent="1" source="KJN6vvObjJPDqSGQ1exF-57" target="KJN6vvObjJPDqSGQ1exF-60">
          <mxGeometry relative="1" as="geometry" />
        </mxCell>
        <mxCell id="KJN6vvObjJPDqSGQ1exF-57" value="&lt;span style=&quot;font-size: 20px;&quot;&gt;PRODUCTO&lt;/span&gt;" style="rounded=0;whiteSpace=wrap;html=1;" parent="1" vertex="1">
          <mxGeometry x="750" y="740" width="200" height="110" as="geometry" />
        </mxCell>
        <mxCell id="KJN6vvObjJPDqSGQ1exF-58" value="" style="endArrow=none;html=1;rounded=0;" parent="1" edge="1">
          <mxGeometry width="50" height="50" relative="1" as="geometry">
            <mxPoint x="750" y="900" as="sourcePoint" />
            <mxPoint x="750" y="850" as="targetPoint" />
          </mxGeometry>
        </mxCell>
        <mxCell id="KJN6vvObjJPDqSGQ1exF-59" value="" style="ellipse;whiteSpace=wrap;html=1;aspect=fixed;fillColor=#000000;" parent="1" vertex="1">
          <mxGeometry x="740" y="900" width="20" height="20" as="geometry" />
        </mxCell>
        <mxCell id="KJN6vvObjJPDqSGQ1exF-60" value="" style="ellipse;whiteSpace=wrap;html=1;aspect=fixed;fillColor=#FFFFFF;" parent="1" vertex="1">
          <mxGeometry x="840" y="900" width="20" height="20" as="geometry" />
        </mxCell>
        <mxCell id="KJN6vvObjJPDqSGQ1exF-62" value="" style="ellipse;whiteSpace=wrap;html=1;aspect=fixed;fillColor=#FFFFFF;" parent="1" vertex="1">
          <mxGeometry x="940" y="900" width="20" height="20" as="geometry" />
        </mxCell>
        <mxCell id="KJN6vvObjJPDqSGQ1exF-64" value="" style="ellipse;whiteSpace=wrap;html=1;aspect=fixed;fillColor=#FFFFFF;" parent="1" vertex="1">
          <mxGeometry x="560" y="900" width="20" height="20" as="geometry" />
        </mxCell>
        <mxCell id="KJN6vvObjJPDqSGQ1exF-66" value="&lt;font style=&quot;font-size: 13px;&quot;&gt;CodigoProducto&lt;/font&gt;" style="text;html=1;align=center;verticalAlign=middle;whiteSpace=wrap;rounded=0;rotation=-90;" parent="1" vertex="1">
          <mxGeometry x="720" y="960" width="60" height="30" as="geometry" />
        </mxCell>
        <mxCell id="KJN6vvObjJPDqSGQ1exF-67" value="&lt;font style=&quot;font-size: 13px;&quot;&gt;NombreProducto&lt;/font&gt;" style="text;html=1;align=center;verticalAlign=middle;whiteSpace=wrap;rounded=0;rotation=-90;" parent="1" vertex="1">
          <mxGeometry x="820" y="960" width="60" height="30" as="geometry" />
        </mxCell>
        <mxCell id="KJN6vvObjJPDqSGQ1exF-68" value="&lt;font style=&quot;font-size: 13px;&quot;&gt;ImporteProducto&lt;/font&gt;" style="text;html=1;align=center;verticalAlign=middle;whiteSpace=wrap;rounded=0;rotation=-90;" parent="1" vertex="1">
          <mxGeometry x="920" y="960" width="60" height="30" as="geometry" />
        </mxCell>
        <mxCell id="KJN6vvObjJPDqSGQ1exF-69" value="&lt;font style=&quot;font-size: 13px;&quot;&gt;CantidadProducto&lt;/font&gt;" style="text;html=1;align=center;verticalAlign=middle;whiteSpace=wrap;rounded=0;rotation=-90;" parent="1" vertex="1">
          <mxGeometry x="540" y="960" width="60" height="30" as="geometry" />
        </mxCell>
        <mxCell id="KJN6vvObjJPDqSGQ1exF-70" value="&lt;font style=&quot;font-size: 20px;&quot;&gt;contener&lt;/font&gt;" style="rhombus;whiteSpace=wrap;html=1;" parent="1" vertex="1">
          <mxGeometry x="430" y="740" width="180" height="110" as="geometry" />
        </mxCell>
        <mxCell id="KJN6vvObjJPDqSGQ1exF-71" value="" style="endArrow=none;html=1;rounded=0;entryX=0;entryY=0.5;entryDx=0;entryDy=0;exitX=1;exitY=0.5;exitDx=0;exitDy=0;" parent="1" source="KJN6vvObjJPDqSGQ1exF-73" target="KJN6vvObjJPDqSGQ1exF-70" edge="1">
          <mxGeometry width="50" height="50" relative="1" as="geometry">
            <mxPoint x="680" y="-170" as="sourcePoint" />
            <mxPoint x="-240" y="-220" as="targetPoint" />
          </mxGeometry>
        </mxCell>
        <mxCell id="KJN6vvObjJPDqSGQ1exF-72" value="" style="endArrow=none;html=1;rounded=0;entryX=0;entryY=0.5;entryDx=0;entryDy=0;exitX=1;exitY=0.5;exitDx=0;exitDy=0;" parent="1" source="KJN6vvObjJPDqSGQ1exF-70" target="KJN6vvObjJPDqSGQ1exF-57" edge="1">
          <mxGeometry width="50" height="50" relative="1" as="geometry">
            <mxPoint x="680" y="795" as="sourcePoint" />
            <mxPoint x="620" y="794.4100000000001" as="targetPoint" />
          </mxGeometry>
        </mxCell>
        <mxCell id="KJN6vvObjJPDqSGQ1exF-73" value="" style="rounded=0;whiteSpace=wrap;html=1;" parent="1" vertex="1">
          <mxGeometry x="100" y="740" width="200" height="110" as="geometry" />
        </mxCell>
        <mxCell id="KJN6vvObjJPDqSGQ1exF-74" value="" style="endArrow=none;html=1;rounded=0;" parent="1" edge="1">
          <mxGeometry width="50" height="50" relative="1" as="geometry">
            <mxPoint x="100" y="300" as="sourcePoint" />
            <mxPoint x="100" y="250" as="targetPoint" />
          </mxGeometry>
        </mxCell>
        <mxCell id="KJN6vvObjJPDqSGQ1exF-75" value="" style="ellipse;whiteSpace=wrap;html=1;aspect=fixed;fillColor=#000000;" parent="1" vertex="1">
          <mxGeometry x="90" y="230" width="20" height="20" as="geometry" />
        </mxCell>
        <mxCell id="KJN6vvObjJPDqSGQ1exF-76" value="&lt;font style=&quot;font-size: 13px;&quot;&gt;DNI&lt;/font&gt;" style="text;html=1;align=center;verticalAlign=middle;whiteSpace=wrap;rounded=0;rotation=0;" parent="1" vertex="1">
          <mxGeometry x="130" y="225" width="60" height="30" as="geometry" />
        </mxCell>
        <mxCell id="KJN6vvObjJPDqSGQ1exF-77" value="" style="endArrow=none;html=1;rounded=0;entryX=0;entryY=0.5;entryDx=0;entryDy=0;" parent="1" source="KJN6vvObjJPDqSGQ1exF-82" target="KJN6vvObjJPDqSGQ1exF-75" edge="1">
          <mxGeometry width="50" height="50" relative="1" as="geometry">
            <mxPoint x="70" y="190" as="sourcePoint" />
            <mxPoint x="80" y="240" as="targetPoint" />
            <Array as="points">
              <mxPoint x="70" y="240" />
            </Array>
          </mxGeometry>
        </mxCell>
        <mxCell id="KJN6vvObjJPDqSGQ1exF-78" value="" style="endArrow=none;html=1;rounded=0;" parent="1" source="KJN6vvObjJPDqSGQ1exF-84" edge="1">
          <mxGeometry width="50" height="50" relative="1" as="geometry">
            <mxPoint x="130" y="190" as="sourcePoint" />
            <mxPoint x="110" y="240" as="targetPoint" />
            <Array as="points">
              <mxPoint x="130" y="240" />
            </Array>
          </mxGeometry>
        </mxCell>
        <mxCell id="KJN6vvObjJPDqSGQ1exF-79" value="&lt;span style=&quot;font-size: 13px;&quot;&gt;Numero&lt;/span&gt;" style="text;html=1;align=center;verticalAlign=middle;whiteSpace=wrap;rounded=0;rotation=-90;" parent="1" vertex="1">
          <mxGeometry x="40" y="130" width="60" height="30" as="geometry" />
        </mxCell>
        <mxCell id="KJN6vvObjJPDqSGQ1exF-80" value="&lt;font style=&quot;font-size: 13px;&quot;&gt;Letra&lt;/font&gt;" style="text;html=1;align=center;verticalAlign=middle;whiteSpace=wrap;rounded=0;rotation=-90;" parent="1" vertex="1">
          <mxGeometry x="100" y="130" width="60" height="30" as="geometry" />
        </mxCell>
        <mxCell id="KJN6vvObjJPDqSGQ1exF-81" value="" style="endArrow=none;html=1;rounded=0;entryX=0;entryY=0.5;entryDx=0;entryDy=0;" parent="1" target="KJN6vvObjJPDqSGQ1exF-82" edge="1">
          <mxGeometry width="50" height="50" relative="1" as="geometry">
            <mxPoint x="70" y="190" as="sourcePoint" />
            <mxPoint x="90" y="240" as="targetPoint" />
            <Array as="points" />
          </mxGeometry>
        </mxCell>
        <mxCell id="KJN6vvObjJPDqSGQ1exF-82" value="" style="ellipse;whiteSpace=wrap;html=1;aspect=fixed;fillColor=#ffffff;" parent="1" vertex="1">
          <mxGeometry x="60" y="180" width="20" height="20" as="geometry" />
        </mxCell>
        <mxCell id="KJN6vvObjJPDqSGQ1exF-83" value="" style="endArrow=none;html=1;rounded=0;" parent="1" target="KJN6vvObjJPDqSGQ1exF-84" edge="1">
          <mxGeometry width="50" height="50" relative="1" as="geometry">
            <mxPoint x="130" y="190" as="sourcePoint" />
            <mxPoint x="110" y="240" as="targetPoint" />
            <Array as="points" />
          </mxGeometry>
        </mxCell>
        <mxCell id="KJN6vvObjJPDqSGQ1exF-84" value="" style="ellipse;whiteSpace=wrap;html=1;aspect=fixed;fillColor=#ffffff;" parent="1" vertex="1">
          <mxGeometry x="120" y="180" width="20" height="20" as="geometry" />
        </mxCell>
        <mxCell id="KJN6vvObjJPDqSGQ1exF-85" value="" style="endArrow=none;html=1;rounded=0;" parent="1" edge="1">
          <mxGeometry width="50" height="50" relative="1" as="geometry">
            <mxPoint x="300" y="300" as="sourcePoint" />
            <mxPoint x="300" y="250" as="targetPoint" />
          </mxGeometry>
        </mxCell>
        <mxCell id="KJN6vvObjJPDqSGQ1exF-86" value="" style="ellipse;whiteSpace=wrap;html=1;aspect=fixed;fillColor=#FFFFFF;" parent="1" vertex="1">
          <mxGeometry x="290" y="230" width="20" height="20" as="geometry" />
        </mxCell>
        <mxCell id="KJN6vvObjJPDqSGQ1exF-87" value="&lt;font style=&quot;font-size: 13px;&quot;&gt;NombreCompleto&lt;/font&gt;" style="text;html=1;align=center;verticalAlign=middle;whiteSpace=wrap;rounded=0;rotation=0;" parent="1" vertex="1">
          <mxGeometry x="360" y="225" width="60" height="30" as="geometry" />
        </mxCell>
        <mxCell id="KJN6vvObjJPDqSGQ1exF-88" value="" style="endArrow=none;html=1;rounded=0;" parent="1" edge="1">
          <mxGeometry width="50" height="50" relative="1" as="geometry">
            <mxPoint x="330" y="200" as="sourcePoint" />
            <mxPoint x="310" y="240" as="targetPoint" />
            <Array as="points">
              <mxPoint x="330" y="240" />
            </Array>
          </mxGeometry>
        </mxCell>
        <mxCell id="KJN6vvObjJPDqSGQ1exF-89" value="" style="ellipse;whiteSpace=wrap;html=1;aspect=fixed;fillColor=#FFFFFF;" parent="1" vertex="1">
          <mxGeometry x="320" y="180" width="20" height="20" as="geometry" />
        </mxCell>
        <mxCell id="KJN6vvObjJPDqSGQ1exF-90" value="" style="endArrow=none;html=1;rounded=0;entryX=0;entryY=0.5;entryDx=0;entryDy=0;" parent="1" edge="1">
          <mxGeometry width="50" height="50" relative="1" as="geometry">
            <mxPoint x="270" y="200" as="sourcePoint" />
            <mxPoint x="290" y="240" as="targetPoint" />
            <Array as="points">
              <mxPoint x="270" y="240" />
            </Array>
          </mxGeometry>
        </mxCell>
        <mxCell id="KJN6vvObjJPDqSGQ1exF-91" value="" style="ellipse;whiteSpace=wrap;html=1;aspect=fixed;fillColor=#FFFFFF;" parent="1" vertex="1">
          <mxGeometry x="260" y="180" width="20" height="20" as="geometry" />
        </mxCell>
        <mxCell id="KJN6vvObjJPDqSGQ1exF-92" value="&lt;font style=&quot;font-size: 13px;&quot;&gt;NombrePila&lt;/font&gt;" style="text;html=1;align=center;verticalAlign=middle;whiteSpace=wrap;rounded=0;rotation=-90;" parent="1" vertex="1">
          <mxGeometry x="240" y="120" width="60" height="30" as="geometry" />
        </mxCell>
        <mxCell id="KJN6vvObjJPDqSGQ1exF-93" value="" style="endArrow=none;html=1;rounded=0;entryX=0;entryY=0.5;entryDx=0;entryDy=0;" parent="1" edge="1">
          <mxGeometry width="50" height="50" relative="1" as="geometry">
            <mxPoint x="300" y="150" as="sourcePoint" />
            <mxPoint x="320" y="190" as="targetPoint" />
            <Array as="points">
              <mxPoint x="300" y="190" />
            </Array>
          </mxGeometry>
        </mxCell>
        <mxCell id="KJN6vvObjJPDqSGQ1exF-94" value="" style="endArrow=none;html=1;rounded=0;dashed=1;" parent="1" edge="1">
          <mxGeometry width="50" height="50" relative="1" as="geometry">
            <mxPoint x="360" y="150" as="sourcePoint" />
            <mxPoint x="340" y="190" as="targetPoint" />
            <Array as="points">
              <mxPoint x="360" y="190" />
            </Array>
          </mxGeometry>
        </mxCell>
        <mxCell id="KJN6vvObjJPDqSGQ1exF-95" value="" style="ellipse;whiteSpace=wrap;html=1;aspect=fixed;fillColor=#FFFFFF;" parent="1" vertex="1">
          <mxGeometry x="290" y="130" width="20" height="20" as="geometry" />
        </mxCell>
        <mxCell id="KJN6vvObjJPDqSGQ1exF-96" value="" style="ellipse;whiteSpace=wrap;html=1;aspect=fixed;fillColor=#FFFFFF;" parent="1" vertex="1">
          <mxGeometry x="350" y="130" width="20" height="20" as="geometry" />
        </mxCell>
        <mxCell id="KJN6vvObjJPDqSGQ1exF-138" value="&lt;font style=&quot;font-size: 13px;&quot;&gt;Apellido1&lt;/font&gt;" style="text;html=1;align=center;verticalAlign=middle;whiteSpace=wrap;rounded=0;rotation=-90;" parent="1" vertex="1">
          <mxGeometry x="270" y="80" width="60" height="30" as="geometry" />
        </mxCell>
        <mxCell id="KJN6vvObjJPDqSGQ1exF-139" value="&lt;font style=&quot;font-size: 13px;&quot;&gt;Apellido2&lt;/font&gt;" style="text;html=1;align=center;verticalAlign=middle;whiteSpace=wrap;rounded=0;rotation=-90;" parent="1" vertex="1">
          <mxGeometry x="330" y="80" width="60" height="30" as="geometry" />
        </mxCell>
        <mxCell id="KJN6vvObjJPDqSGQ1exF-140" value="&lt;font style=&quot;font-size: 13px;&quot;&gt;Apellidos&lt;/font&gt;" style="text;html=1;align=center;verticalAlign=middle;whiteSpace=wrap;rounded=0;rotation=0;" parent="1" vertex="1">
          <mxGeometry x="370" y="175" width="60" height="30" as="geometry" />
        </mxCell>
        <mxCell id="KJN6vvObjJPDqSGQ1exF-141" value="" style="endArrow=none;html=1;rounded=0;" parent="1" edge="1">
          <mxGeometry width="50" height="50" relative="1" as="geometry">
            <mxPoint x="200" y="900" as="sourcePoint" />
            <mxPoint x="200" y="850" as="targetPoint" />
          </mxGeometry>
        </mxCell>
        <mxCell id="KJN6vvObjJPDqSGQ1exF-142" value="" style="ellipse;whiteSpace=wrap;html=1;aspect=fixed;fillColor=#FFFFFF;" parent="1" vertex="1">
          <mxGeometry x="190" y="900" width="20" height="20" as="geometry" />
        </mxCell>
        <mxCell id="KJN6vvObjJPDqSGQ1exF-143" value="&lt;font style=&quot;font-size: 13px;&quot;&gt;FechaFactura&lt;/font&gt;" style="text;html=1;align=center;verticalAlign=middle;whiteSpace=wrap;rounded=0;rotation=0;" parent="1" vertex="1">
          <mxGeometry x="320" y="870" width="60" height="30" as="geometry" />
        </mxCell>
        <mxCell id="KJN6vvObjJPDqSGQ1exF-146" value="" style="ellipse;whiteSpace=wrap;html=1;aspect=fixed;fillColor=#000000;" parent="1" vertex="1">
          <mxGeometry x="90" y="900" width="20" height="20" as="geometry" />
        </mxCell>
        <mxCell id="KJN6vvObjJPDqSGQ1exF-151" value="" style="endArrow=none;html=1;rounded=0;entryX=0;entryY=1;entryDx=0;entryDy=0;" parent="1" target="KJN6vvObjJPDqSGQ1exF-73" edge="1">
          <mxGeometry width="50" height="50" relative="1" as="geometry">
            <mxPoint x="98.99999999999994" y="920" as="sourcePoint" />
            <mxPoint x="98.99999999999994" y="870" as="targetPoint" />
          </mxGeometry>
        </mxCell>
        <mxCell id="KJN6vvObjJPDqSGQ1exF-157" value="" style="ellipse;whiteSpace=wrap;html=1;aspect=fixed;fillStyle=auto;" parent="1" vertex="1">
          <mxGeometry x="460" y="900" width="20" height="20" as="geometry" />
        </mxCell>
        <mxCell id="KJN6vvObjJPDqSGQ1exF-160" value="&lt;span style=&quot;font-size: 13px;&quot;&gt;LineaFactura&lt;/span&gt;" style="text;html=1;align=center;verticalAlign=middle;whiteSpace=wrap;rounded=0;rotation=-90;" parent="1" vertex="1">
          <mxGeometry x="440" y="960" width="60" height="30" as="geometry" />
        </mxCell>
        <mxCell id="KJN6vvObjJPDqSGQ1exF-161" value="" style="ellipse;whiteSpace=wrap;html=1;aspect=fixed;fillColor=#FFFFFF;" parent="1" vertex="1">
          <mxGeometry x="290" y="900" width="20" height="20" as="geometry" />
        </mxCell>
        <mxCell id="KJN6vvObjJPDqSGQ1exF-162" value="" style="endArrow=none;html=1;rounded=0;" parent="1" edge="1">
          <mxGeometry width="50" height="50" relative="1" as="geometry">
            <mxPoint x="299.5" y="900" as="sourcePoint" />
            <mxPoint x="299.5" y="850" as="targetPoint" />
          </mxGeometry>
        </mxCell>
        <mxCell id="KJN6vvObjJPDqSGQ1exF-163" value="&lt;font style=&quot;font-size: 13px;&quot;&gt;ImporteFactura&lt;/font&gt;" style="text;html=1;align=center;verticalAlign=middle;whiteSpace=wrap;rounded=0;rotation=-90;" parent="1" vertex="1">
          <mxGeometry x="170" y="960" width="60" height="30" as="geometry" />
        </mxCell>
        <mxCell id="KJN6vvObjJPDqSGQ1exF-164" value="&lt;span style=&quot;font-size: 13px;&quot;&gt;NumeroFactura&lt;/span&gt;" style="text;html=1;align=center;verticalAlign=middle;whiteSpace=wrap;rounded=0;rotation=-90;" parent="1" vertex="1">
          <mxGeometry x="70" y="960" width="60" height="30" as="geometry" />
        </mxCell>
        <mxCell id="KJN6vvObjJPDqSGQ1exF-165" value="&lt;span style=&quot;font-size: 20px;&quot;&gt;CLIENTE&lt;/span&gt;" style="rounded=0;whiteSpace=wrap;html=1;" parent="1" vertex="1">
          <mxGeometry x="100" y="300" width="200" height="110" as="geometry" />
        </mxCell>
        <mxCell id="KJN6vvObjJPDqSGQ1exF-166" value="&lt;font style=&quot;font-size: 20px;&quot;&gt;causar&lt;/font&gt;" style="rhombus;whiteSpace=wrap;html=1;" parent="1" vertex="1">
          <mxGeometry x="110" y="530" width="180" height="110" as="geometry" />
        </mxCell>
        <mxCell id="KJN6vvObjJPDqSGQ1exF-168" value="" style="endArrow=none;html=1;rounded=0;exitX=0.5;exitY=0;exitDx=0;exitDy=0;entryX=0.5;entryY=1;entryDx=0;entryDy=0;" parent="1" source="KJN6vvObjJPDqSGQ1exF-73" target="KJN6vvObjJPDqSGQ1exF-166" edge="1">
          <mxGeometry width="50" height="50" relative="1" as="geometry">
            <mxPoint x="310" y="720" as="sourcePoint" />
            <mxPoint x="320" y="615.05" as="targetPoint" />
          </mxGeometry>
        </mxCell>
        <mxCell id="KJN6vvObjJPDqSGQ1exF-170" value="" style="shape=or;whiteSpace=wrap;html=1;fillColor=#000000;" parent="1" vertex="1">
          <mxGeometry x="470" y="900" width="10" height="20" as="geometry" />
        </mxCell>
        <mxCell id="JsVpPgzTbFQcecBSGwlL-21" value="" style="endArrow=none;html=1;rounded=0;entryX=1;entryY=1;entryDx=0;entryDy=0;" parent="1" edge="1" target="KJN6vvObjJPDqSGQ1exF-57">
          <mxGeometry width="50" height="50" relative="1" as="geometry">
            <mxPoint x="950" y="900" as="sourcePoint" />
            <mxPoint x="950" y="850" as="targetPoint" />
          </mxGeometry>
        </mxCell>
        <mxCell id="JsVpPgzTbFQcecBSGwlL-22" value="" style="endArrow=none;html=1;rounded=0;" parent="1" edge="1">
          <mxGeometry width="50" height="50" relative="1" as="geometry">
            <mxPoint x="330" y="950" as="sourcePoint" />
            <mxPoint x="310" y="910" as="targetPoint" />
            <Array as="points">
              <mxPoint x="330" y="910" />
            </Array>
          </mxGeometry>
        </mxCell>
        <mxCell id="JsVpPgzTbFQcecBSGwlL-23" value="" style="endArrow=none;html=1;rounded=0;entryX=0;entryY=0.5;entryDx=0;entryDy=0;" parent="1" target="KJN6vvObjJPDqSGQ1exF-161" edge="1">
          <mxGeometry width="50" height="50" relative="1" as="geometry">
            <mxPoint x="270" y="950" as="sourcePoint" />
            <mxPoint x="250" y="910" as="targetPoint" />
            <Array as="points">
              <mxPoint x="270" y="910" />
            </Array>
          </mxGeometry>
        </mxCell>
        <mxCell id="JsVpPgzTbFQcecBSGwlL-24" value="" style="endArrow=none;html=1;rounded=0;entryX=0.5;entryY=1;entryDx=0;entryDy=0;" parent="1" target="KJN6vvObjJPDqSGQ1exF-161" edge="1">
          <mxGeometry width="50" height="50" relative="1" as="geometry">
            <mxPoint x="300" y="950" as="sourcePoint" />
            <mxPoint x="280" y="970" as="targetPoint" />
            <Array as="points" />
          </mxGeometry>
        </mxCell>
        <mxCell id="JsVpPgzTbFQcecBSGwlL-25" value="" style="ellipse;whiteSpace=wrap;html=1;aspect=fixed;fillColor=#FFFFFF;" parent="1" vertex="1">
          <mxGeometry x="260" y="950" width="20" height="20" as="geometry" />
        </mxCell>
        <mxCell id="JsVpPgzTbFQcecBSGwlL-26" value="" style="ellipse;whiteSpace=wrap;html=1;aspect=fixed;fillColor=#FFFFFF;" parent="1" vertex="1">
          <mxGeometry x="290" y="950" width="20" height="20" as="geometry" />
        </mxCell>
        <mxCell id="JsVpPgzTbFQcecBSGwlL-27" value="" style="ellipse;whiteSpace=wrap;html=1;aspect=fixed;fillColor=#FFFFFF;" parent="1" vertex="1">
          <mxGeometry x="320" y="950" width="20" height="20" as="geometry" />
        </mxCell>
        <mxCell id="JsVpPgzTbFQcecBSGwlL-28" value="&lt;font style=&quot;font-size: 13px;&quot;&gt;DiaFactura&lt;/font&gt;" style="text;html=1;align=center;verticalAlign=middle;whiteSpace=wrap;rounded=0;rotation=-90;" parent="1" vertex="1">
          <mxGeometry x="240" y="1010" width="60" height="30" as="geometry" />
        </mxCell>
        <mxCell id="JsVpPgzTbFQcecBSGwlL-29" value="&lt;font style=&quot;font-size: 13px;&quot;&gt;MesFactura&lt;/font&gt;" style="text;html=1;align=center;verticalAlign=middle;whiteSpace=wrap;rounded=0;rotation=-90;" parent="1" vertex="1">
          <mxGeometry x="270" y="1010" width="60" height="30" as="geometry" />
        </mxCell>
        <mxCell id="JsVpPgzTbFQcecBSGwlL-31" value="&lt;font style=&quot;font-size: 13px;&quot;&gt;AnoFactura&lt;/font&gt;" style="text;html=1;align=center;verticalAlign=middle;whiteSpace=wrap;rounded=0;rotation=-90;" parent="1" vertex="1">
          <mxGeometry x="300" y="1010" width="60" height="30" as="geometry" />
        </mxCell>
        <mxCell id="JsVpPgzTbFQcecBSGwlL-32" value="&lt;font style=&quot;font-size: 20px;&quot;&gt;(0,n)&lt;/font&gt;" style="text;html=1;align=center;verticalAlign=middle;resizable=0;points=[];autosize=1;strokeColor=none;fillColor=none;" parent="1" vertex="1">
          <mxGeometry x="335" y="740" width="60" height="40" as="geometry" />
        </mxCell>
        <mxCell id="JsVpPgzTbFQcecBSGwlL-33" value="&lt;font style=&quot;font-size: 20px;&quot;&gt;(1,n)&lt;/font&gt;" style="text;html=1;align=center;verticalAlign=middle;resizable=0;points=[];autosize=1;strokeColor=none;fillColor=none;" parent="1" vertex="1">
          <mxGeometry x="645" y="740" width="60" height="40" as="geometry" />
        </mxCell>
        <mxCell id="JsVpPgzTbFQcecBSGwlL-34" value="&lt;font style=&quot;font-size: 20px;&quot;&gt;(N:M)&lt;/font&gt;" style="text;html=1;align=center;verticalAlign=middle;resizable=0;points=[];autosize=1;strokeColor=none;fillColor=none;" parent="1" vertex="1">
          <mxGeometry x="485" y="680" width="70" height="40" as="geometry" />
        </mxCell>
        <mxCell id="JsVpPgzTbFQcecBSGwlL-35" value="&lt;font style=&quot;font-size: 20px;&quot;&gt;(1:N)&lt;/font&gt;" style="text;html=1;align=center;verticalAlign=middle;resizable=0;points=[];autosize=1;strokeColor=none;fillColor=none;" parent="1" vertex="1">
          <mxGeometry x="30" y="565" width="70" height="40" as="geometry" />
        </mxCell>
        <mxCell id="JsVpPgzTbFQcecBSGwlL-36" value="&lt;font style=&quot;font-size: 20px;&quot;&gt;(1,n)&lt;/font&gt;" style="text;html=1;align=center;verticalAlign=middle;resizable=0;points=[];autosize=1;strokeColor=none;fillColor=none;" parent="1" vertex="1">
          <mxGeometry x="100" y="670" width="60" height="40" as="geometry" />
        </mxCell>
        <mxCell id="JsVpPgzTbFQcecBSGwlL-37" value="&lt;font style=&quot;font-size: 20px;&quot;&gt;(1,1)&lt;/font&gt;" style="text;html=1;align=center;verticalAlign=middle;resizable=0;points=[];autosize=1;strokeColor=none;fillColor=none;" parent="1" vertex="1">
          <mxGeometry x="100" y="450" width="60" height="40" as="geometry" />
        </mxCell>
        <mxCell id="JsVpPgzTbFQcecBSGwlL-38" value="" style="endArrow=classic;html=1;rounded=0;entryX=0.5;entryY=1;entryDx=0;entryDy=0;" parent="1" target="KJN6vvObjJPDqSGQ1exF-165" edge="1">
          <mxGeometry width="50" height="50" relative="1" as="geometry">
            <mxPoint x="200" y="530" as="sourcePoint" />
            <mxPoint x="250" y="480" as="targetPoint" />
          </mxGeometry>
        </mxCell>
        <mxCell id="qK4679LcunszKpLoP00Q-1" value="" style="endArrow=none;html=1;rounded=0;exitX=1;exitY=1;exitDx=0;exitDy=0;entryX=0.5;entryY=0;entryDx=0;entryDy=0;" edge="1" parent="1" source="KJN6vvObjJPDqSGQ1exF-70" target="KJN6vvObjJPDqSGQ1exF-64">
          <mxGeometry width="50" height="50" relative="1" as="geometry">
            <mxPoint x="700" y="810" as="sourcePoint" />
            <mxPoint x="750" y="760" as="targetPoint" />
          </mxGeometry>
        </mxCell>
        <mxCell id="qK4679LcunszKpLoP00Q-2" value="" style="endArrow=none;html=1;rounded=0;exitX=0;exitY=1;exitDx=0;exitDy=0;entryX=0;entryY=0.25;entryDx=0;entryDy=0;entryPerimeter=0;" edge="1" parent="1" source="KJN6vvObjJPDqSGQ1exF-70" target="KJN6vvObjJPDqSGQ1exF-170">
          <mxGeometry width="50" height="50" relative="1" as="geometry">
            <mxPoint x="575" y="833" as="sourcePoint" />
            <mxPoint x="600" y="990" as="targetPoint" />
          </mxGeometry>
        </mxCell>
        <mxCell id="qK4679LcunszKpLoP00Q-5" value="&lt;p class=&quot;MsoNormal&quot;&gt;&lt;i&gt;&lt;font style=&quot;font-size: 40px;&quot;&gt;Modelo E/R de Miguel et al.&lt;/font&gt;&lt;/i&gt;&lt;/p&gt;" style="text;html=1;align=center;verticalAlign=middle;whiteSpace=wrap;rounded=0;" vertex="1" parent="1">
          <mxGeometry x="310" y="320" width="700" height="300" as="geometry" />
        </mxCell>
        <mxCell id="qK4679LcunszKpLoP00Q-6" value="&lt;span style=&quot;font-size: 20px;&quot;&gt;FACTURA&lt;/span&gt;" style="rounded=0;whiteSpace=wrap;html=1;" vertex="1" parent="1">
          <mxGeometry x="110" y="750" width="180" height="90" as="geometry" />
        </mxCell>
      </root>
    </mxGraphModel>
  </diagram>
</mxfile>
